<svg width="12" height="14" viewBox="0 0 12 14" fill="none" xmlns="http://www.w3.org/2000/svg">
<line y1="-0.5" x2="15.3226" y2="-0.5" transform="matrix(0.636315 -0.77143 0.804769 0.593588 1.25 13.1079)" stroke="#4798DE"/>
<path d="M11.5 10.3892C11.5 11.6312 10.5322 12.6079 9.375 12.6079C8.21779 12.6079 7.25 11.6312 7.25 10.3892C7.25 9.1471 8.21779 8.17041 9.375 8.17041C10.5322 8.17041 11.5 9.1471 11.5 10.3892Z" stroke="#4798DE"/>
<path d="M4.75 3.77002C4.75 5.01208 3.78221 5.98877 2.625 5.98877C1.46779 5.98877 0.5 5.01208 0.5 3.77002C0.5 2.52795 1.46779 1.55127 2.625 1.55127C3.78221 1.55127 4.75 2.52795 4.75 3.77002Z" stroke="#4798DE"/>
</svg>
