<svg width="20" height="20" viewBox="0 0 20 20" fill="none" xmlns="http://www.w3.org/2000/svg">
<path d="M4.99935 14.1665H14.9994M4.16602 9.1665L5.83268 4.1665H14.166L15.8327 9.1665H4.16602ZM4.16602 9.1665H15.8327H4.16602ZM4.16602 9.1665V14.1665V9.1665ZM15.8327 9.1665V14.1665V9.1665ZM4.16602 14.1665V15.8332H4.99935V14.1665H4.16602ZM4.16602 14.1665H4.99935H4.16602ZM15.8327 14.1665V15.8332H14.9994V14.1665H15.8327ZM15.8327 14.1665H14.9994H15.8327Z" stroke="#4798DE" stroke-linecap="square"/>
<path d="M6.66732 12.5002C7.12756 12.5002 7.50065 12.1271 7.50065 11.6668C7.50065 11.2066 7.12756 10.8335 6.66732 10.8335C6.20708 10.8335 5.83398 11.2066 5.83398 11.6668C5.83398 12.1271 6.20708 12.5002 6.66732 12.5002Z" stroke="#4798DE" stroke-linecap="square"/>
<path d="M13.3333 12.5002C13.7936 12.5002 14.1667 12.1271 14.1667 11.6668C14.1667 11.2066 13.7936 10.8335 13.3333 10.8335C12.8731 10.8335 12.5 11.2066 12.5 11.6668C12.5 12.1271 12.8731 12.5002 13.3333 12.5002Z" stroke="#4798DE" stroke-linecap="square"/>
</svg>
