<svg width="18" height="18" viewBox="0 0 18 18" fill="none" xmlns="http://www.w3.org/2000/svg">
<path d="M9.2168 4.02783C11.7553 4.74372 12.8692 5.6644 13.9736 8.78477" stroke="#6CDB7E"/>
<path d="M9.64844 1C13.8043 2.24491 15.5955 3.62454 16.9998 8.35164" stroke="#6CDB7E"/>
<path d="M1.36699 3.6595L2.49541 2.53103C2.86981 2.15662 3.47117 2.13895 3.86691 2.49073L6.33016 4.68036C6.73364 5.03903 6.77961 5.6532 6.43401 6.06793L5.40829 7.29885C5.10693 7.66049 5.09783 8.18403 5.39028 8.5529C6.80779 10.3409 7.85742 11.4816 9.85606 12.7175C10.2397 12.9547 10.7348 12.8867 11.0537 12.5677L11.5361 12.0853C11.9266 11.6947 12.5598 11.6947 12.9504 12.0853L14.9956 14.1306C15.3861 14.5212 15.3861 15.1543 14.9956 15.5448L13.952 16.5885C13.6976 16.8429 13.3234 16.941 12.9776 16.8419C5.30426 14.6432 2.47875 11.9301 1.09274 4.54016C1.03276 4.22034 1.1369 3.8896 1.36699 3.6595Z" stroke="#6CDB7E"/>
</svg>
