<svg width="15" height="15" viewBox="0 0 15 15" fill="none" xmlns="http://www.w3.org/2000/svg">
<path d="M13.125 7.5H11.875C11.1846 7.5 10.625 8.05964 10.625 8.75V10C10.625 10.6904 11.1846 11.25 11.875 11.25C12.5654 11.25 13.125 10.6904 13.125 10V7.5ZM13.125 7.5C13.125 4.3934 10.6066 1.875 7.5 1.875C4.3934 1.875 1.875 4.3934 1.875 7.5V10C1.875 10.6904 2.43464 11.25 3.125 11.25C3.81536 11.25 4.375 10.6904 4.375 10V8.75C4.375 8.05964 3.81536 7.5 3.125 7.5H1.875" stroke="#4798DE" stroke-linecap="square"/>
<path d="M13.125 8.75V11.25C13.125 12.5 12.7083 13.125 11.875 13.125C11.0417 13.125 10 13.125 8.75 13.125" stroke="#4798DE" stroke-linecap="square"/>
</svg>
