<svg width="20" height="20" viewBox="0 0 20 20" fill="none" xmlns="http://www.w3.org/2000/svg">
<path d="M3.33268 14.1668H1.66602V5.8335H12.4993V14.1668H6.66602" stroke="#4798DE" stroke-linecap="square"/>
<path d="M16.6667 14.1667H18.3333V10.463L16.6667 7.5H12.5V14.1667H13.3333" stroke="#4798DE" stroke-linecap="square"/>
<path d="M5.00065 15.8333C5.92113 15.8333 6.66732 15.0871 6.66732 14.1667C6.66732 13.2462 5.92113 12.5 5.00065 12.5C4.08018 12.5 3.33398 13.2462 3.33398 14.1667C3.33398 15.0871 4.08018 15.8333 5.00065 15.8333Z" stroke="#4798DE" stroke-linecap="square"/>
<path d="M15.0007 15.8333C15.9211 15.8333 16.6673 15.0871 16.6673 14.1667C16.6673 13.2462 15.9211 12.5 15.0007 12.5C14.0802 12.5 13.334 13.2462 13.334 14.1667C13.334 15.0871 14.0802 15.8333 15.0007 15.8333Z" stroke="#4798DE" stroke-linecap="square"/>
</svg>
